<?xml version="1.0" encoding="UTF-8"?>
<svg version="1.1" xmlns="http://www.w3.org/2000/svg" width="1024" height="1024">
<path d="M0 0 C337.92 0 675.84 0 1024 0 C1024 337.92 1024 675.84 1024 1024 C686.08 1024 348.16 1024 0 1024 C0 686.08 0 348.16 0 0 Z " fill="#FDFDFD" transform="translate(0,0)"/>
<path d="M0 0 C1.41831841 0.93855497 2.83569505 1.8785332 4.25268555 2.8190918 C5.0420903 3.34238571 5.83149506 3.86567963 6.64482117 4.40483093 C10.12206951 6.75998075 13.46917953 9.27245029 16.8125 11.8125 C17.50263184 12.33312012 18.19276367 12.85374023 18.90380859 13.39013672 C20.9375705 14.92452693 22.96910579 16.46181704 25 18 C31.25332231 22.73249093 37.53844106 27.40421191 43.9375 31.9375 C49.16557277 35.64194656 54.27357789 39.47355256 59.33374023 43.40356445 C62.51562425 45.87088301 65.72961605 48.27650381 69 50.625 C75.50419844 55.31451753 81.85632761 60.20219984 88.22827148 65.0690918 C94.79225366 70.08253624 101.38186886 75.05820368 108 80 C109.91698479 81.43707574 111.8336404 82.87459066 113.75 84.3125 C114.74 85.055 115.73 85.7975 116.75 86.5625 C119.08333333 88.3125 121.41666667 90.0625 123.75 91.8125 C124.40282959 92.30210205 125.05565918 92.7917041 125.72827148 93.29614258 C127.08202791 94.31150077 128.43570563 95.32696392 129.78930664 96.3425293 C133.23140605 98.92481832 136.67482294 101.5053113 140.12109375 104.08203125 C147.25338178 109.41758389 154.34617811 114.79613079 161.39453125 120.2421875 C165.87523156 123.68531962 170.41043952 127.05573339 174.9375 130.4375 C181.42270842 135.28442298 187.85014228 140.18953737 194.19506836 145.21850586 C197.75554584 148.03662405 201.35775271 150.78748425 205 153.5 C209.28023656 156.68897413 213.49975373 159.9415209 217.6875 163.25 C225.06826127 169.0801725 232.54173474 174.78569652 240.02050781 180.48925781 C248.21328799 186.74196178 256.36296767 193.05001306 264.5 199.375 C265.26626709 199.97046631 266.03253418 200.56593262 266.82202148 201.17944336 C267.55106689 201.74671143 268.2801123 202.31397949 269.03125 202.8984375 C269.7221875 203.43178711 270.413125 203.96513672 271.125 204.51464844 C272.72240414 205.78009203 274.25928246 207.12132736 275.78125 208.4765625 C277.82202132 210.17863469 277.82202132 210.17863469 279.96875 210.03125 C282.85542244 208.56570861 285.05937945 206.62570177 287.5 204.5 C292.41893801 200.28645319 297.4654635 196.3336684 302.671875 192.4765625 C306.62532 189.54656134 310.53081145 186.55440519 314.4375 183.5625 C315.16799561 183.00328857 315.89849121 182.44407715 316.65112305 181.86791992 C321.98714189 177.78064257 327.31470637 173.68245865 332.640625 169.58203125 C338.69217714 164.92713085 344.76188366 160.29588323 350.828125 155.66015625 C352.9275904 154.05534906 355.02642464 152.44972084 357.125 150.84375 C361.41527262 147.56067457 365.70728366 144.27987938 370 141 C370.81484863 140.37722168 371.62969727 139.75444336 372.46923828 139.11279297 C382.8311796 131.19591488 393.22396814 123.32416227 403.67089844 115.51977539 C410.12758819 110.68366099 416.49707456 105.74232711 422.85107422 100.77246094 C427.45413645 97.17967721 432.11679929 93.69864155 436.86328125 90.296875 C441.29169767 87.05414915 445.64134578 83.71064484 450 80.375 C457.73364933 74.45880306 465.52797729 68.63602126 473.38110352 62.87963867 C478.99925098 58.75523093 484.53992252 54.54359197 490.05078125 50.27734375 C498.92747407 43.42289089 507.97690568 36.79874396 517.01025391 30.15332031 C521.35530749 26.95515376 525.68969501 23.74483634 530 20.5 C531.4166078 19.43704181 532.83325101 18.37413049 534.25048828 17.31201172 C535.59079395 16.30687599 536.93013181 15.30044961 538.26904297 14.29345703 C540.82096019 12.37740783 543.37877998 10.46945234 545.9375 8.5625 C546.75541016 7.94632813 547.57332031 7.33015625 548.41601562 6.6953125 C549.19525391 6.11652344 549.97449219 5.53773438 550.77734375 4.94140625 C551.47077881 4.42263916 552.16421387 3.90387207 552.87866211 3.36938477 C555.17001679 1.89024926 557.46163307 0.98044302 560 0 C560.29751592 54.60905127 560.52660524 109.2180207 560.66384928 163.82772293 C560.68010859 170.27398458 560.69693477 176.72024464 560.71411133 183.16650391 C560.71752136 184.44984515 560.7209314 185.7331864 560.72444477 187.05541678 C560.78102146 207.8387918 560.88352571 228.62169966 561.00298635 249.40479748 C561.12453068 270.72815062 561.19675858 292.05125899 561.22315043 313.37494433 C561.24099382 326.53449679 561.29735883 339.69272887 561.40291407 352.8518749 C561.47160103 361.8740623 561.49240883 370.89556654 561.47551791 379.91799645 C561.46718534 385.1250762 561.48000548 390.3298482 561.54967117 395.5365181 C561.6130235 400.30618952 561.61609051 405.07200668 561.57168563 409.84185703 C561.56620004 411.56484695 561.5826364 413.28807901 561.62348137 415.01059346 C561.90268137 427.51448276 561.90268137 427.51448276 558.74637292 431.63764241 C555.23398901 435.08211543 551.20662321 437.49356095 547 440 C544.9589479 441.45221121 542.98548264 442.97094465 541 444.5 C540.01515625 445.23605469 539.0303125 445.97210937 538.015625 446.73046875 C534.90920594 449.06833076 531.82646781 451.43550701 528.75 453.8125 C523.97123719 457.50449472 519.15263672 461.13891568 514.3125 464.75 C506.06814138 470.9049795 497.95228348 477.22113786 489.85253906 483.56469727 C489.24120117 484.03834717 488.62986328 484.51199707 488 485 C487.30358398 485.55550537 486.60716797 486.11101074 485.88964844 486.68334961 C484 488 484 488 482 488 C481.505 328.115 481.505 328.115 481 165 C475.06 169.62 469.12 174.24 463 179 C454.6875 185.25 454.6875 185.25 450.73046875 188.203125 C447.29565472 190.77065069 443.89237155 193.37676187 440.5 196 C435.8051968 199.63037674 431.06914908 203.20110293 426.3125 206.75 C419.62172828 211.74533212 413.02227374 216.8506617 406.44189453 221.99023438 C401.28278434 226.01543729 396.07814879 229.96764215 390.83203125 233.87890625 C381.68093342 240.73276297 372.68580598 247.79464745 363.66479492 254.81811523 C357.12946746 259.90453696 350.5696389 264.95798996 344 270 C341.83289153 271.66609253 339.66645047 273.33305199 337.5 275 C336.41667876 275.83334905 335.33334544 276.66668241 334.25 277.5 C333.71375 277.9125 333.1775 278.325 332.625 278.75 C314.75 292.5 314.75 292.5 313.12426758 293.75048828 C312.04327879 294.58206811 310.96238651 295.41377342 309.8815918 296.24560547 C307.13817334 298.35681792 304.39300081 300.46567891 301.64453125 302.5703125 C300.5338306 303.42184426 299.42315329 304.27340647 298.3125 305.125 C297.7750415 305.53613037 297.23758301 305.94726074 296.68383789 306.37084961 C292.41305938 309.64978957 288.24746151 313.04555081 284.12109375 316.50390625 C281.94108687 318.04155383 280.67025881 318.89382669 278 319 C276.1328125 317.69921875 276.1328125 317.69921875 274.125 315.6875 C270.30363948 312.08018603 266.36052346 308.99745047 262.0625 306 C257.07574709 302.50456285 252.25808805 298.88736138 247.53125 295.04296875 C241.09128756 289.84528302 234.4630357 284.87782669 227.8828125 279.859375 C220.6529804 274.34336625 213.44840591 268.80170469 206.31103516 263.16650391 C199.59939582 257.87790807 192.79593526 252.70971502 186.00146484 247.52832031 C183.07894094 245.29667849 180.16362703 243.05573892 177.25 240.8125 C176.2084375 240.01070312 175.166875 239.20890625 174.09375 238.3828125 C172.03125 236.79427083 169.96875 235.20572917 167.90625 233.6171875 C166.8646875 232.81539062 165.823125 232.01359375 164.75 231.1875 C164.22011475 230.77959229 163.69022949 230.37168457 163.14428711 229.95141602 C160.11240904 227.61923666 157.07605992 225.29305686 154.03515625 222.97265625 C146.64089949 217.32987568 139.26915606 211.66146131 131.9375 205.9375 C125.57362507 200.97151008 119.1569301 196.08475237 112.68725586 191.25756836 C108.59802933 188.20506152 104.53842319 185.1194708 100.5 182 C93.04928766 176.26868281 85.52004728 170.64003546 78 165 C77.67 271.59 77.34 378.18 77 488 C73.52766469 486.26383235 70.88052394 484.51989055 67.8125 482.1875 C67.03700806 481.59980835 67.03700806 481.59980835 66.24584961 481.00024414 C64.49424509 479.67070682 62.74682615 478.33580824 61 477 C60.37931641 476.52626953 59.75863281 476.05253906 59.11914062 475.56445312 C55.63705118 472.90660953 52.15767739 470.24523662 48.6796875 467.58203125 C36.44672702 458.21625212 24.19589036 448.87493117 11.875 439.625 C11.02768311 438.98836426 10.18036621 438.35172852 9.30737305 437.69580078 C8.52273682 437.10782715 7.73810059 436.51985352 6.9296875 435.9140625 C6.24116699 435.3979541 5.55264648 434.8818457 4.84326172 434.35009766 C3.25962173 433.19016002 1.63331514 432.08887676 0 431 C-0.37259549 427.98801839 -0.37259549 427.98801839 -0.36914349 424.02281761 C-0.37260502 423.29282086 -0.37606655 422.56282412 -0.37963298 421.81070626 C-0.38763892 419.33929108 -0.37406167 416.86845019 -0.36076355 414.39706421 C-0.36207052 412.61754774 -0.36469492 410.83803182 -0.36853105 409.05851901 C-0.37526938 404.14888622 -0.36319756 399.23944814 -0.34819686 394.32984018 C-0.33528878 389.04284559 -0.33962224 383.75586272 -0.34190369 378.46885681 C-0.34347974 369.30224361 -0.33403589 360.13569427 -0.31719017 350.96909714 C-0.29284965 337.71560771 -0.28499998 324.46214929 -0.2812262 311.20863993 C-0.27465393 289.70776066 -0.25467176 268.20691545 -0.22631836 246.70605469 C-0.19879784 225.81510591 -0.17755444 204.92416636 -0.16479492 184.03320312 C-0.16400675 182.74633348 -0.16321858 181.45946383 -0.16240653 180.13359813 C-0.15849153 173.67800475 -0.15470037 167.2224113 -0.15097082 160.76681781 C-0.11985077 107.17785499 -0.0669939 53.58892915 0 0 Z " fill="#096CFA" transform="translate(230,209)"/>
<path d="M0 0 C0.32068552 32.80756213 0.56725514 65.61471665 0.71491461 98.42348938 C0.73242379 102.29982556 0.75054437 106.17615866 0.76904297 110.05249023 C0.77271531 110.82417405 0.77638766 111.59585786 0.78017129 112.39092603 C0.84103395 124.87407149 0.95138453 137.35631119 1.08013915 149.83891992 C1.21122121 162.65438712 1.28885588 175.46938112 1.31723893 188.28549117 C1.33641767 196.18965635 1.39690058 204.09126141 1.51083054 211.99463805 C1.59383204 218.06289024 1.60233506 224.12895703 1.58350754 230.19784164 C1.58735207 232.68155716 1.61511154 235.16537157 1.66887665 237.64850807 C2.07525447 257.3890995 2.07525447 257.3890995 -3.05440903 262.85138512 C-6.43198021 265.78107935 -10.08231355 267.86715889 -14 270 C-15.62983478 271.21634259 -17.24160678 272.45843305 -18.8125 273.75 C-20.20812633 274.8336 -21.60395713 275.91693671 -23 277 C-28.42708528 281.21599201 -33.84770898 285.43977416 -39.25 289.6875 C-39.81348145 290.13037354 -40.37696289 290.57324707 -40.95751953 291.02954102 C-43.78010233 293.24938053 -46.59910952 295.47361808 -49.4140625 297.703125 C-55.81034237 302.76232941 -62.25124951 307.76046216 -68.75 312.6875 C-69.44206543 313.21722412 -70.13413086 313.74694824 -70.84716797 314.29272461 C-75.76761026 318 -75.76761026 318 -78 318 C-78.34365288 285.20949949 -78.60780392 252.41946762 -78.76597994 219.62757595 C-78.78473959 215.75252816 -78.80415451 211.87748391 -78.82397461 208.00244141 C-78.82790927 207.23101991 -78.83184392 206.4595984 -78.83589781 205.66480049 C-78.90109357 193.18872527 -79.01931793 180.71369127 -79.15729194 168.23823288 C-79.29777769 155.42841938 -79.38092539 142.61914953 -79.41132742 129.80859733 C-79.43186808 121.90887449 -79.49662388 114.01209465 -79.618747 106.11327842 C-79.70773989 100.04668073 -79.71677791 93.98259075 -79.69661522 87.91526604 C-79.70073148 85.43355928 -79.73043611 82.95173797 -79.78808212 80.4706974 C-80.22350726 60.75821263 -80.22350726 60.75821263 -74.70338631 54.90641022 C-71.61151697 52.19538486 -68.3200224 50.00878285 -64.74077332 47.9960742 C-62.5099323 46.71958222 -60.5302787 45.1952877 -58.52734375 43.58984375 C-57.33230033 42.7036066 -56.13573517 41.81941697 -54.9375 40.9375 C-44.2828259 33.01328978 -33.91695413 24.74092409 -23.5612793 16.43212891 C-3.03591946 0 -3.03591946 0 0 0 Z " fill="#075CF5" transform="translate(673,469)"/>
<path d="M0 0 C4.47452207 1.65188449 7.59384557 3.98094506 11.125 7.125 C15.9388779 11.30740479 20.86125404 15.15084045 26.0625 18.84765625 C29.58207159 21.42649128 32.97893231 24.13669428 36.375 26.875 C42.64530091 31.92942018 48.98434941 36.87668501 55.38525391 41.76464844 C57.06573698 43.05029167 58.74236611 44.34081591 60.41796875 45.6328125 C60.98628418 46.07093262 61.55459961 46.50905273 62.14013672 46.96044922 C62.6920166 47.38600098 63.24389648 47.81155273 63.8125 48.25 C67.794413 51.39635998 67.794413 51.39635998 72.02555037 54.17796624 C75.15987316 56.12736975 77.55744688 57.64508781 78.73497105 61.25017333 C79.01030027 64.04640433 79.02814156 66.74493616 78.96203613 69.5541687 C78.96887153 70.61693531 78.97570693 71.67970192 78.98274946 72.77467358 C78.99592894 76.33639399 78.95192939 79.89510038 78.90820312 83.45654297 C78.90594659 86.00911894 78.90721308 88.56170012 78.91174316 91.11427307 C78.91356497 96.60994697 78.8908767 102.10465008 78.84584045 107.60012436 C78.78077027 115.54538587 78.75998366 123.49028015 78.74993652 131.43577923 C78.73243567 144.32718631 78.67921903 157.21818799 78.60351562 170.109375 C78.53006188 182.63051325 78.47344526 195.15154131 78.43945312 207.67285156 C78.43735134 208.44490708 78.43524955 209.21696259 78.43308407 210.01241373 C78.42264363 213.88566368 78.412534 217.75891441 78.40258884 221.63216567 C78.31968059 253.75507173 78.17879834 285.87747955 78 318 C73.73460013 316.39257242 70.65637415 314.39499854 67.0625 311.5625 C66.22368286 310.90531982 66.22368286 310.90531982 65.36791992 310.23486328 C64.18140778 309.30416862 62.99696115 308.37083548 61.81445312 307.43505859 C60.01136723 306.00899039 58.20203702 304.59125354 56.390625 303.17578125 C50.4342793 298.51693767 44.51251342 293.81690929 38.61328125 289.0859375 C29.89215129 282.12467682 21.08805074 275.27089753 12.23046875 268.484375 C11.73203427 268.08935463 11.2335998 267.69433425 10.72006124 267.28734356 C8.95090048 265.92502117 8.95090048 265.92502117 6.75382382 264.60140795 C0.51108676 260.44618834 0.51108676 260.44618834 -0.82814515 256.65665257 C-1.13460822 253.84436708 -1.15738141 251.15374481 -1.08229065 248.32557678 C-1.08998047 247.26195575 -1.0976703 246.19833471 -1.10559314 245.10248274 C-1.12040151 241.54357091 -1.07095629 237.98849055 -1.02172852 234.42993164 C-1.01918949 231.87720836 -1.02061556 229.3244785 -1.02571106 226.77175903 C-1.02775952 221.27872667 -1.00226338 215.78692488 -0.95157051 210.29414558 C-0.87832829 202.35286872 -0.85497783 194.41205671 -0.84367859 186.47047871 C-0.82399602 173.58511682 -0.76414361 160.70026862 -0.67895508 147.81518555 C-0.59630416 135.30088872 -0.53261814 122.78673157 -0.49438477 110.2722168 C-0.49202025 109.50042401 -0.48965574 108.72863122 -0.48721958 107.93345077 C-0.47547398 104.06147163 -0.46410067 100.18949151 -0.45291245 96.31751072 C-0.35965906 64.21130052 -0.20118292 32.10572166 0 0 Z " fill="#0969FA" transform="translate(346,469)"/>
<path d="M0 0 C0 3 0 3 -1.1875 4.625 C-3.41406801 6.31412056 -5.25851328 6.62952882 -8 7 C-5.42215154 4.35247996 -3.08351902 2.05567935 0 0 Z " fill="#2273FB" transform="translate(662,476)"/>
<path d="M0 0 C0.66 0.33 1.32 0.66 2 1 C-0.3125 3.5 -0.3125 3.5 -3 6 C-3.99 6 -4.98 6 -6 6 C-4 4 -2 2 0 0 Z " fill="#2673F7" transform="translate(669,470)"/>
</svg>
